<?xml version="1.0" standalone="no"?>
<!DOCTYPE svg PUBLIC "-//W3C//DTD SVG 20010904//EN"
 "http://www.w3.org/TR/2001/REC-SVG-20010904/DTD/svg10.dtd">
<svg version="1.0" xmlns="http://www.w3.org/2000/svg"
 width="192.000000pt" height="192.000000pt" viewBox="0 0 192.000000 192.000000"
 preserveAspectRatio="xMidYMid meet">

<g transform="translate(0.000000,192.000000) scale(0.100000,-0.100000)"
fill="#000000" stroke="none">
<path d="M679 1803 c-52 -47 -217 -291 -182 -270 6 4 27 35 48 69 60 101 135
198 167 214 41 21 81 10 129 -36 50 -47 49 -71 -3 -76 -39 -3 -84 -22 -75 -31
3 -2 14 0 25 6 12 6 43 11 70 11 44 0 53 -4 77 -32 20 -23 35 -32 51 -30 14 2
24 -2 24 -9 0 -7 9 -4 23 9 12 11 42 29 67 40 25 11 63 36 85 56 100 92 252
130 310 76 34 -31 53 -74 71 -160 l14 -65 -5 55 c-7 79 -34 147 -74 182 -33
29 -38 30 -99 25 -75 -6 -172 -51 -223 -103 -42 -43 -53 -43 -46 1 5 31 3 35
-16 35 -25 0 -97 -45 -97 -60 0 -23 -28 -5 -66 43 -44 57 -74 72 -74 38 0 -19
-4 -18 -46 14 -62 48 -100 47 -155 -2z"/>
<path d="M1362 1683 c-25 -47 -40 -53 -67 -23 -24 27 -83 46 -98 31 -8 -8 -5
-11 11 -11 28 0 71 -22 95 -48 17 -19 17 -21 -8 -67 -57 -108 -5 -237 111
-275 34 -11 39 -10 88 24 l51 35 47 -22 c26 -12 47 -25 48 -29 0 -4 -18 -11
-40 -14 -22 -4 -43 -10 -45 -14 -3 -4 11 -43 30 -86 18 -44 46 -119 61 -169
24 -79 28 -107 28 -230 0 -124 -3 -149 -25 -215 -17 -51 -23 -85 -19 -106 l7
-32 -56 1 c-57 0 -106 -18 -130 -47 -14 -17 -71 -22 -71 -7 0 5 12 24 27 42
15 18 21 29 13 26 -48 -19 -91 -29 -97 -23 -4 4 -3 10 3 14 46 31 106 165 130
290 14 75 18 267 5 311 -3 13 -6 -44 -6 -127 0 -83 -4 -154 -8 -158 -10 -10
-28 17 -22 33 2 7 -8 23 -24 35 -55 46 -189 307 -238 465 -15 51 -31 93 -34
93 -28 1 -168 -704 -145 -728 6 -6 11 17 31 163 15 109 86 448 104 497 6 16
15 -2 43 -78 20 -55 48 -125 62 -156 18 -41 22 -58 13 -58 -26 0 -117 -31
-117 -40 0 -5 19 -3 41 5 23 8 56 15 73 15 28 0 35 -7 74 -74 23 -40 42 -75
42 -77 0 -2 -21 -2 -47 0 -90 7 -220 -39 -207 -74 4 -8 13 -15 21 -15 10 0 13
-6 8 -17 -4 -10 -9 -40 -12 -68 -4 -41 -1 -56 19 -84 40 -60 130 -64 172 -7
17 22 21 42 21 107 l0 79 42 -3 c61 -6 76 -22 69 -74 -9 -65 -61 -183 -101
-226 -19 -21 -49 -45 -67 -53 -32 -15 -32 -15 39 -11 69 4 71 4 64 -17 -8 -20
-15 -21 -195 -24 -159 -2 -187 0 -192 13 -8 19 -43 20 -50 0 -5 -13 -38 -15
-209 -15 -193 0 -204 1 -210 20 -8 25 4 90 17 90 5 0 21 -9 35 -20 15 -11 28
-19 30 -17 2 2 -10 33 -27 68 -33 71 -50 146 -50 220 0 47 12 70 25 49 4 -7
23 -8 51 -4 l44 6 -10 -26 c-5 -15 -10 -54 -10 -88 0 -66 26 -118 60 -118 15
0 17 5 10 35 -9 40 -36 85 -50 85 -6 0 -10 11 -10 26 0 20 8 28 37 41 21 8 44
24 51 34 19 27 30 24 46 -15 8 -19 24 -41 35 -48 30 -18 26 -45 -8 -62 -27
-14 -89 -106 -72 -106 30 0 74 27 92 56 16 26 22 54 24 119 l3 84 -46 23 c-83
40 -174 37 -264 -10 -42 -21 66 187 194 375 l53 78 6 -100 c3 -55 10 -112 14
-127 8 -33 8 -33 -38 -13 -20 8 -49 15 -64 14 -21 -1 -13 -6 30 -19 72 -23 90
-39 106 -93 19 -61 75 -178 100 -207 13 -16 5 9 -23 65 -70 139 -98 247 -104
390 -5 152 8 206 86 369 3 5 -1 5 -8 1 -17 -11 -65 -119 -79 -182 -8 -32 -30
-75 -59 -115 -25 -34 -82 -121 -125 -193 -74 -122 -79 -127 -73 -85 11 69 -2
42 -20 -44 -23 -110 -16 -298 14 -381 l21 -60 -39 45 c-41 46 -53 49 -24 5 12
-18 14 -37 9 -80 -9 -65 -22 -75 -62 -47 -23 16 -43 20 -94 19 -59 -2 -65 0
-56 14 6 9 18 14 29 11 27 -7 23 4 -21 56 -113 133 -118 291 -16 526 35 80 35
81 15 96 -19 15 -18 16 27 50 26 19 64 60 85 90 126 182 166 235 238 308 44
45 76 82 71 82 -20 0 -193 -195 -249 -282 -77 -119 -134 -183 -183 -205 -45
-21 -48 -29 -14 -45 14 -6 25 -14 25 -18 0 -4 -14 -38 -31 -76 -28 -62 -74
-213 -87 -289 -2 -16 -8 -32 -12 -35 -4 -3 -11 -13 -16 -22 -6 -11 -9 11 -9
67 0 46 -5 89 -10 94 -7 7 -10 -19 -10 -79 0 -77 -3 -92 -23 -119 l-23 -32 28
7 c15 4 36 13 45 22 23 20 41 5 68 -56 12 -25 32 -61 46 -79 25 -33 25 -35 9
-61 -23 -36 -51 -59 -100 -82 l-40 -20 37 0 c30 0 35 -3 31 -19 -8 -30 38 -58
111 -66 85 -9 125 11 126 61 0 20 7 21 113 27 61 4 284 7 495 7 l382 0 9 -23
c12 -30 30 -44 66 -51 29 -6 29 -6 -5 10 -58 27 -66 59 -24 101 23 22 32 25
80 21 86 -7 135 -68 82 -102 -13 -7 -36 -17 -53 -21 -16 -4 -24 -10 -18 -12
24 -9 84 19 95 43 10 21 18 24 65 24 29 0 53 5 53 10 0 6 -24 10 -53 10 -49 0
-77 12 -77 32 0 4 7 8 15 8 20 0 19 15 -2 47 -17 25 -17 27 1 37 84 50 81 45
82 132 0 66 5 89 30 139 25 54 29 70 29 160 0 93 -2 104 -32 163 l-33 62 43 0
c23 0 49 5 57 11 13 8 11 12 -10 26 -62 41 -147 140 -184 216 -21 42 -39 77
-40 77 -2 0 -1 -11 2 -25 5 -28 0 -30 -29 -15 -10 6 -19 19 -19 30 0 11 -11
27 -24 35 -20 14 -23 22 -19 55 5 37 4 39 -31 54 -20 8 -36 22 -36 30 0 10 -9
16 -23 16 -19 0 -25 8 -33 38 l-10 37 -22 -42z m21 -27 c3 -8 -7 -33 -24 -55
-31 -43 -36 -81 -18 -128 8 -22 12 -24 19 -13 6 8 10 23 10 34 0 10 14 36 31
58 26 33 37 39 63 36 29 -3 31 -6 34 -46 3 -38 -1 -46 -33 -75 -20 -18 -46
-34 -58 -37 -12 -3 -22 -12 -22 -20 0 -15 60 -60 80 -60 6 0 30 16 52 35 26
22 47 33 57 29 23 -9 20 -17 -16 -38 -18 -11 -49 -32 -69 -48 -44 -33 -57 -34
-109 -8 -57 29 -94 89 -94 153 -1 44 6 63 43 125 24 39 45 72 47 72 1 0 4 -6
7 -14z m47 -34 c0 -11 -59 -67 -64 -61 -7 6 43 69 55 69 5 0 9 -4 9 -8z m-70
-97 c0 -8 -4 -15 -10 -15 -5 0 -10 7 -10 15 0 8 5 15 10 15 6 0 10 -7 10 -15z
m180 -70 c0 -20 -38 -57 -50 -50 -14 9 -12 39 2 53 17 17 48 15 48 -3z m-75
-56 c10 -30 1 -33 -37 -13 -30 15 -31 18 -13 25 33 13 43 10 50 -12z m184 -42
c42 -75 92 -134 138 -163 42 -26 44 -29 24 -38 -14 -6 -34 -5 -58 2 -20 6 -39
10 -40 8 -2 -2 12 -30 31 -61 69 -116 73 -212 12 -342 -34 -73 -37 -86 -31
-131 9 -65 1 -89 -36 -107 -36 -19 -36 -14 -9 74 41 129 8 383 -74 573 -37 84
-37 98 -6 98 29 0 50 11 50 26 0 12 -45 47 -75 58 -9 3 32 45 45 46 3 0 16
-19 29 -43z m-380 -615 c11 -21 27 -44 35 -51 23 -19 21 -26 -24 -70 -22 -22
-40 -44 -40 -50 0 -6 -7 -11 -15 -11 -8 0 -15 8 -15 18 0 22 -35 62 -54 62
-18 0 -36 23 -28 36 4 5 23 20 43 32 19 12 41 33 47 47 16 35 28 31 51 -13z
m-865 -378 c14 -15 26 -37 26 -50 0 -35 -33 -47 -113 -41 -109 7 -125 41 -47
95 46 31 100 29 134 -4z"/>
<path d="M838 1588 c-18 -15 -58 -78 -58 -93 0 -5 22 13 50 40 27 26 47 52 44
57 -7 11 -18 10 -36 -4z"/>
<path d="M1067 1594 c-7 -7 14 -29 71 -73 54 -42 54 -24 1 34 -39 43 -58 53
-72 39z"/>
<path d="M1583 1535 c0 -22 2 -30 4 -17 2 12 2 30 0 40 -3 9 -5 -1 -4 -23z"/>
<path d="M460 1489 c-7 -12 -74 -86 -150 -164 -105 -109 -145 -158 -170 -208
-35 -71 -48 -159 -33 -217 8 -29 9 -20 9 50 -1 127 30 185 193 354 127 131
178 193 168 202 -3 3 -11 -4 -17 -17z"/>
<path d="M1310 1231 c0 -5 7 -25 15 -44 20 -47 20 -46 -15 -58 -16 -6 -30 -15
-30 -21 0 -6 8 -7 18 -3 45 19 51 17 66 -16 16 -38 21 -25 6 15 -9 25 -6 28
71 67 102 51 96 64 -6 15 l-76 -36 -20 45 c-19 43 -29 55 -29 36z"/>
<path d="M1012 1135 c0 -16 2 -22 5 -12 2 9 2 23 0 30 -3 6 -5 -1 -5 -18z"/>
<path d="M997 1043 c-15 -141 -19 -208 -13 -202 8 7 30 249 23 255 -2 3 -7
-21 -10 -53z"/>
<path d="M575 260 c3 -25 7 -55 11 -67 5 -19 2 -22 -27 -25 -40 -4 -49 -27
-25 -63 20 -31 62 -34 71 -5 5 15 12 18 36 13 41 -8 40 24 -1 38 -16 6 -30 17
-30 25 0 8 0 17 0 22 -1 4 14 9 32 12 49 7 44 34 -8 38 -33 2 -43 8 -52 30
-11 25 -11 23 -7 -18z"/>
<path d="M808 284 c-12 -11 4 -34 24 -34 15 0 18 -4 13 -17 -17 -43 -16 -52 9
-68 30 -20 32 -32 10 -56 -9 -10 -14 -26 -12 -35 3 -16 6 -16 26 6 24 26 30
78 10 98 -7 7 -13 34 -13 60 0 45 -1 47 -30 50 -17 2 -34 0 -37 -4z"/>
<path d="M1042 212 c6 -82 27 -122 62 -122 37 0 56 10 56 30 0 16 -6 18 -34
13 -44 -7 -66 23 -66 89 0 26 -5 50 -11 54 -9 5 -11 -12 -7 -64z"/>
<path d="M1338 237 c-36 -28 -43 -39 -43 -67 0 -33 2 -35 65 -57 36 -12 66
-23 68 -23 2 0 2 10 0 22 -2 18 -15 27 -53 39 -27 9 -50 20 -50 24 0 5 19 22
43 38 41 28 56 57 28 57 -8 0 -34 -15 -58 -33z"/>
</g>
</svg>
